<svg width="33" height="32" viewBox="0 0 33 32" fill="none" xmlns="http://www.w3.org/2000/svg">
<path d="M16.909 29.3334C9.57568 29.3334 3.57568 23.3334 3.57568 16.0001C3.57568 8.66675 9.57568 2.66675 16.909 2.66675C24.2423 2.66675 30.2423 8.66675 30.2423 16.0001C30.2423 23.3334 24.2423 29.3334 16.909 29.3334ZM16.909 5.33341C11.0423 5.33341 6.24235 10.1334 6.24235 16.0001C6.24235 21.8667 11.0423 26.6667 16.909 26.6667C22.7757 26.6667 27.5757 21.8667 27.5757 16.0001C27.5757 10.1334 22.7757 5.33341 16.909 5.33341Z" fill="#EA4335"/>
<path d="M10.5923 11.5688L12.4779 9.6832L23.1318 20.3368L21.2462 22.2224L10.5923 11.5688Z" fill="#EA4335"/>
<path d="M10.5923 20.4314L21.2458 9.77747L23.1315 11.6631L12.4779 22.317L10.5923 20.4314Z" fill="#EA4335"/>
</svg>
