<svg width="40" height="40" viewBox="0 0 40 40" fill="none" xmlns="http://www.w3.org/2000/svg">
<path d="M20.0003 3.66699C11.0003 3.66699 3.66699 11.0003 3.66699 20.0003C3.66699 29.0003 11.0003 36.3337 20.0003 36.3337C29.0003 36.3337 36.3337 29.0003 36.3337 20.0003C36.3337 11.0003 29.0003 3.66699 20.0003 3.66699ZM20.0003 33.667C12.5003 33.667 6.33366 27.5003 6.33366 20.0003C6.33366 12.5003 12.5003 6.33366 20.0003 6.33366C27.5003 6.33366 33.667 12.5003 33.667 20.0003C33.667 27.5003 27.5003 33.667 20.0003 33.667Z" fill="#5C9BFB"/>
<path d="M21.167 10.667H18.8337C18.667 10.667 18.667 10.667 18.667 10.8337V13.167C18.667 13.3337 18.667 13.3337 18.8337 13.3337H21.167C21.3337 13.3337 21.3337 13.3337 21.3337 13.167V10.8337C21.3337 10.667 21.3337 10.667 21.167 10.667Z" fill="#5C9BFB"/>
<path d="M21.167 15.834H18.8337C18.667 15.834 18.667 15.834 18.667 16.0007V29.1673C18.667 29.334 18.667 29.334 18.8337 29.334H21.167C21.3337 29.334 21.3337 29.334 21.3337 29.1673V16.0007C21.3337 16.0007 21.3337 15.834 21.167 15.834Z" fill="#5C9BFB"/>
</svg>
