<svg width="48" height="45" viewBox="0 0 48 45" fill="none" xmlns="http://www.w3.org/2000/svg">
<g clip-path="url(#clip0_2_10701)">
<path d="M24 3.75C12.96 3.75 4 12.15 4 22.5C4 32.85 12.96 41.25 24 41.25C35.04 41.25 44 32.85 44 22.5C44 12.15 35.04 3.75 24 3.75ZM24 37.5C15.18 37.5 8 30.7687 8 22.5C8 14.2313 15.18 7.5 24 7.5C32.82 7.5 40 14.2313 40 22.5C40 30.7687 32.82 37.5 24 37.5ZM33.18 14.2125L20 26.5688L14.82 21.7313L12 24.375L20 31.875L36 16.875L33.18 14.2125Z" fill="#7BD468"/>
</g>
<defs>
<clipPath id="clip0_2_10701">
<rect width="48" height="45" fill="white"/>
</clipPath>
</defs>
</svg>
