<svg id="Capa_1" data-name="Capa 1" xmlns="http://www.w3.org/2000/svg" viewBox="0 0 226.89 67.94"><defs><style>.cls-1{fill:#433087;}</style></defs><path class="cls-1" d="M112.46,24.42a9.26,9.26,0,0,1,5.94,2,5.83,5.83,0,0,1,0,9.51,9.26,9.26,0,0,1-5.94,2H96.05c-1.06,0-1.6-.5-1.6-1.52v-.8c0-1,.54-1.52,1.6-1.52h16.41a4,4,0,0,0,2.55-.84,2.51,2.51,0,0,0,0-4.08,4,4,0,0,0-2.55-.84h-9.6a9.17,9.17,0,0,1-5.94-2,5.8,5.8,0,0,1,0-9.5,9.22,9.22,0,0,1,5.94-2h16.4c1.07,0,1.6.51,1.6,1.52v.8c0,1-.53,1.52-1.6,1.52h-16.4a4,4,0,0,0-2.56.84,2.51,2.51,0,0,0,0,4.08,4,4,0,0,0,2.56.84Z"/><path class="cls-1" d="M134.35,36.34c0,1-.53,1.52-1.6,1.52h-1.6c-1.06,0-1.6-.5-1.6-1.52v-20c0-1,.54-1.52,1.6-1.52h1.6c1.07,0,1.6.51,1.6,1.52Z"/><path class="cls-1" d="M147.85,22.66V36.34c0,1-.54,1.52-1.6,1.52h-1.6c-1.07,0-1.6-.5-1.6-1.52v-20c0-1,.53-1.52,1.6-1.52h2.8a2.52,2.52,0,0,1,2,1.39l8.43,15.88,8.43-15.88a2.52,2.52,0,0,1,2-1.39h2.8c1.07,0,1.6.51,1.6,1.52v20c0,1-.53,1.52-1.6,1.52h-1.6c-1.06,0-1.6-.5-1.6-1.52V22.66l-7.62,13.78c-.32,1-.84,1.42-1.58,1.42h-1.6c-.74,0-1.26-.47-1.58-1.42Z"/><path class="cls-1" d="M207.75,31.14a5.93,5.93,0,0,1-2.46,4.76,9.26,9.26,0,0,1-5.94,2h-9.6a9.22,9.22,0,0,1-5.94-2,5.93,5.93,0,0,1-2.46-4.76v-9.6a5.89,5.89,0,0,1,2.46-4.75,9.22,9.22,0,0,1,5.94-2h9.6a9.26,9.26,0,0,1,5.94,2,5.89,5.89,0,0,1,2.46,4.75Zm-21.6,0a2.53,2.53,0,0,0,1,2,3.93,3.93,0,0,0,2.55.84h9.6a4,4,0,0,0,2.55-.84,2.53,2.53,0,0,0,1-2v-9.6a2.53,2.53,0,0,0-1-2,4,4,0,0,0-2.55-.84h-9.6a3.93,3.93,0,0,0-2.55.84,2.53,2.53,0,0,0-1,2Z"/><path class="cls-1" d="M93,47.16l.33-.7a3.21,3.21,0,0,0,2.06.73c1.08,0,1.54-.42,1.54-1,0-1.52-3.78-.56-3.78-2.87,0-1,.75-1.78,2.39-1.78a3.61,3.61,0,0,1,2,.55l-.29.71a3.2,3.2,0,0,0-1.71-.51c-1.06,0-1.51.45-1.51,1,0,1.52,3.77.57,3.77,2.86,0,.95-.76,1.77-2.41,1.77A3.74,3.74,0,0,1,93,47.16Z"/><path class="cls-1" d="M99.29,41.64h.89v6.23h-.89Z"/><path class="cls-1" d="M101.68,47.16l.33-.7a3.18,3.18,0,0,0,2,.73c1.08,0,1.54-.42,1.54-1,0-1.52-3.77-.56-3.77-2.87,0-1,.75-1.78,2.39-1.78a3.63,3.63,0,0,1,2,.55l-.29.71a3.22,3.22,0,0,0-1.71-.51c-1.06,0-1.52.45-1.52,1,0,1.52,3.78.57,3.78,2.86,0,.95-.77,1.77-2.42,1.77A3.71,3.71,0,0,1,101.68,47.16Z"/><path class="cls-1" d="M109.12,42.41H107v-.77h5.15v.77H110v5.46h-.89Z"/><path class="cls-1" d="M117.84,47.1v.77h-4.53V41.64h4.4v.77H114.2v1.92h3.13v.75H114.2v2Z"/><path class="cls-1" d="M125.26,47.87V43.33L123,47.11h-.41l-2.25-3.75v4.51h-.85V41.64h.73l2.6,4.38,2.56-4.38h.73v6.23Z"/><path class="cls-1" d="M132.15,46.31h-3.31l-.69,1.56h-.92l2.83-6.23h.88l2.83,6.23h-.93Zm-.31-.71-1.35-3.05-1.34,3.05Z"/><path class="cls-1" d="M137.49,41.64h.89v6.23h-.89Z"/><path class="cls-1" d="M145.81,41.64v6.23h-.73l-3.74-4.65v4.65h-.89V41.64h.73l3.74,4.65V41.64Z"/><path class="cls-1" d="M149.11,42.41H147v-.77h5.15v.77H150v5.46h-.88Z"/><path class="cls-1" d="M157.82,47.1v.77H153.3V41.64h4.4v.77h-3.51v1.92h3.13v.75h-3.13v2Z"/><path class="cls-1" d="M163.76,44.72h.85v2.43a3.64,3.64,0,0,1-2.36.79,3.19,3.19,0,1,1,2.42-5.41l-.56.55a2.44,2.44,0,0,0-1.8-.72,2.4,2.4,0,1,0,0,4.79,2.7,2.7,0,0,0,1.46-.4Z"/><path class="cls-1" d="M170.68,47.87,169.33,46H167.4v1.9h-.89V41.64h2.43c1.62,0,2.6.82,2.6,2.17a2,2,0,0,1-1.37,2l1.48,2.09Zm0-4.06c0-.89-.59-1.4-1.73-1.4H167.4v2.81h1.52C170.06,45.22,170.65,44.7,170.65,43.81Z"/><path class="cls-1" d="M177.16,46.31h-3.32l-.68,1.56h-.92l2.82-6.23h.88l2.84,6.23h-.94Zm-.32-.71-1.34-3.05-1.35,3.05Z"/><path class="cls-1" d="M179.9,41.64h2.63a3.12,3.12,0,1,1,0,6.23H179.9Zm2.57,5.46a2.35,2.35,0,1,0,0-4.69h-1.68V47.1Z"/><path class="cls-1" d="M187,44.75a3.31,3.31,0,1,1,3.32,3.19A3.16,3.16,0,0,1,187,44.75Zm5.73,0a2.42,2.42,0,1,0-2.41,2.4A2.33,2.33,0,0,0,192.68,44.75Z"/><path class="cls-1" d="M197.73,41.64h2.62a3.12,3.12,0,1,1,0,6.23h-2.62Zm2.57,5.46a2.35,2.35,0,1,0,0-4.69h-1.68V47.1Z"/><path class="cls-1" d="M209.8,47.1v.77h-4.52V41.64h4.4v.77h-3.51v1.92h3.13v.75h-3.13v2Z"/><path class="cls-1" d="M87.82,56.38V51.83l-2.25,3.79h-.41L82.9,51.86v4.52H82V50.14h.73l2.6,4.38,2.57-4.38h.73v6.24Z"/><path class="cls-1" d="M94.72,54.82H91.4l-.68,1.56H89.8l2.82-6.24h.89l2.83,6.24H95.4Zm-.32-.72-1.34-3.05L91.72,54.1Z"/><path class="cls-1" d="M102.82,50.14v6.24h-.73l-3.74-4.65v4.65h-.89V50.14h.73l3.74,4.65V50.14Z"/><path class="cls-1" d="M106.13,50.92H104v-.78h5.16v.78H107v5.46h-.88Z"/><path class="cls-1" d="M114.84,55.6v.78h-4.52V50.14h4.4v.78h-3.51v1.91h3.12v.76h-3.12v2Z"/><path class="cls-1" d="M121.84,50.14v6.24h-.73l-3.74-4.65v4.65h-.89V50.14h.73L121,54.79V50.14Z"/><path class="cls-1" d="M123.91,50.14h.89v6.24h-.89Z"/><path class="cls-1" d="M132.65,56.38V51.83l-2.25,3.79H130l-2.26-3.76v4.52h-.85V50.14h.73l2.6,4.38,2.56-4.38h.73v6.24Z"/><path class="cls-1" d="M135.57,50.14h.89v6.24h-.89Z"/><path class="cls-1" d="M143.05,55.6v.78h-4.52V50.14h4.4v.78h-3.51v1.91h3.12v.76h-3.12v2Z"/><path class="cls-1" d="M150.05,50.14v6.24h-.73l-3.74-4.65v4.65h-.89V50.14h.73l3.74,4.65V50.14Z"/><path class="cls-1" d="M153.36,50.92h-2.14v-.78h5.16v.78h-2.14v5.46h-.88Z"/><path class="cls-1" d="M157,53.26a3.32,3.32,0,1,1,3.32,3.19A3.17,3.17,0,0,1,157,53.26Zm5.74,0a2.43,2.43,0,1,0-2.42,2.39A2.35,2.35,0,0,0,162.69,53.26Z"/><path class="cls-1" d="M167.22,53.26a3.32,3.32,0,1,1,3.32,3.19A3.17,3.17,0,0,1,167.22,53.26Zm5.74,0a2.43,2.43,0,1,0-2.42,2.39A2.35,2.35,0,0,0,173,53.26Z"/><path class="cls-1" d="M180.44,52.31c0,1.36-1,2.18-2.6,2.18H176.3v1.89h-.89V50.14h2.43C179.46,50.14,180.44,51,180.44,52.31Zm-.89,0c0-.89-.6-1.39-1.74-1.39H176.3v2.79h1.51C179,53.71,179.55,53.21,179.55,52.31Z"/><path class="cls-1" d="M181.53,53.26a3.31,3.31,0,1,1,3.32,3.19A3.17,3.17,0,0,1,181.53,53.26Zm5.73,0a2.42,2.42,0,1,0-2.41,2.39A2.34,2.34,0,0,0,187.26,53.26Z"/><path class="cls-1" d="M193.88,56.38l-1.34-1.92-.39,0h-1.54v1.9h-.89V50.14h2.43c1.62,0,2.6.82,2.6,2.17a2,2,0,0,1-1.37,2l1.47,2.1Zm0-4.07c0-.89-.6-1.39-1.74-1.39h-1.51v2.8h1.51C193.26,53.72,193.86,53.21,193.86,52.31Z"/><path class="cls-1" d="M197.54,50.92H195.4v-.78h5.16v.78h-2.14v5.46h-.88Z"/><path class="cls-1" d="M201.55,53.69V50.14h.89v3.51c0,1.38.64,2,1.76,2s1.76-.62,1.76-2V50.14h.87v3.55a2.64,2.64,0,1,1-5.28,0Z"/><path class="cls-1" d="M214.21,50.14v6.24h-.73l-3.74-4.65v4.65h-.89V50.14h.73l3.74,4.65V50.14Z"/><path class="cls-1" d="M215.77,53.26a3.32,3.32,0,1,1,3.32,3.19A3.17,3.17,0,0,1,215.77,53.26Zm5.74,0a2.43,2.43,0,1,0-2.42,2.39A2.35,2.35,0,0,0,221.51,53.26Z"/><path class="cls-1" d="M48.49,64.23a12.69,12.69,0,0,1-12.27-9.57.86.86,0,0,1,.63-1,.87.87,0,0,1,1.06.63A10.92,10.92,0,0,0,58.34,56.3a11,11,0,0,0,1-5.52.87.87,0,0,1,1.74-.12A12.67,12.67,0,0,1,48.49,64.23ZM12.7,48.94a.75.75,0,0,1-.26,0,11.84,11.84,0,0,1-1.18-.43A12.7,12.7,0,0,1,4.46,32a12.53,12.53,0,0,1,15.3-7.38.87.87,0,0,1-.54,1.66A10.77,10.77,0,0,0,6.08,32.65a10.94,10.94,0,0,0,5.85,14.21,9.81,9.81,0,0,0,1,.38.87.87,0,0,1-.26,1.7ZM55.29,22.65a1,1,0,0,1-.43-.11.88.88,0,0,1-.32-1.19,7,7,0,0,0,.44-.92A10.93,10.93,0,0,0,36.11,9.8a.87.87,0,1,1-1.39-1.05A12.67,12.67,0,0,1,56.6,21.07a10,10,0,0,1-.55,1.14A.87.87,0,0,1,55.29,22.65Z"/><path class="cls-1" d="M51.21,29.8a7.39,7.39,0,1,0,7.39,7.39A7.4,7.4,0,0,0,51.21,29.8Zm4.08,12.13a6.67,6.67,0,0,1-3.66,1.51,6,6,0,0,1-5.8-3.07,6.28,6.28,0,1,1,9.46,1.56Z"/><path class="cls-1" d="M64.56,34.8c-1-.28-1.9-.58-2.84-.89a.47.47,0,0,1-.3-.28c-.17-.56-.32-1.13-.45-1.7a1,1,0,0,1,0-.53c.36-.81.74-1.62,1.13-2.42a.37.37,0,0,0-.06-.47c-.93-1-1.85-2.09-2.76-3.14-.14-.16-.23-.17-.41-.06L56.34,26.8a.42.42,0,0,1-.48,0c-.48-.27-1-.52-1.48-.76a.73.73,0,0,1-.42-.54c-.24-.86-.51-1.72-.77-2.58H49.11c-.2,0-.27.11-.33.29-.28.89-.57,1.78-.88,2.67a.76.76,0,0,1-.3.34c-.47.24-1,.45-1.43.69a.52.52,0,0,1-.54,0c-.73-.4-1.48-.77-2.21-1.19a.55.55,0,0,0-.72.06c-.49.39-1,.76-1.5,1.14l-1.3,1c.45,1,.9,1.89,1.32,2.83a.59.59,0,0,1,0,.43c-.25.68-.51,1.36-.79,2a.51.51,0,0,1-.28.26l-2.67.87c-.17.06-.2.15-.19.32,0,.51,0,1,.06,1.53l.12,2.91.38.1,2.24.45c.1,0,.23.07.26.14.39.82.77,1.65,1.13,2.48a.42.42,0,0,1,0,.31c-.47.88-1,1.75-1.43,2.63a.4.4,0,0,0,0,.37c.84,1.07,1.71,2.13,2.59,3.21l3.2-1.91a.4.4,0,0,1,.52,0c.49.35,1,.65,1.5,1a.7.7,0,0,1,.26.39c.21.88.41,1.76.58,2.64.07.34.19.46.53.45,1.24,0,2.49,0,3.73,0,.21,0,.29,0,.35-.26.23-.89.48-1.78.74-2.65a.61.61,0,0,1,.29-.34,13.64,13.64,0,0,1,1.37-.57.77.77,0,0,1,.52,0c.9.36,1.8.73,2.7,1.12a.33.33,0,0,0,.42-.09c.83-.8,1.66-1.6,2.51-2.39a.35.35,0,0,0,.09-.48c-.39-.84-.77-1.67-1.13-2.52a.86.86,0,0,1,0-.5c.15-.52.31-1,.49-1.54a.61.61,0,0,1,.33-.34c1-.39,2-.75,3-1.13a.35.35,0,0,0,.18-.28c0-1.38,0-2.77.11-4.15A.4.4,0,0,0,64.56,34.8ZM51.21,45.45a8.26,8.26,0,1,1,8.27-8.26A8.27,8.27,0,0,1,51.21,45.45Z"/><path class="cls-1" d="M37,42.86c0-.25-.12-.31-.33-.34-.79-.12-1.59-.25-2.38-.39a.45.45,0,0,1-.28-.2c-.2-.43-.38-.87-.55-1.31a.71.71,0,0,1,0-.43c.2-.7.41-1.39.63-2.08a.3.3,0,0,0-.1-.37c-.87-.73-1.73-1.46-2.59-2.21-.13-.11-.2-.1-.33,0-.63.51-1.27,1-1.9,1.5a.33.33,0,0,1-.38.06c-.42-.16-.84-.31-1.27-.44a.6.6,0,0,1-.41-.38c-.29-.67-.6-1.33-.91-2l-3.28.48c-.16,0-.21.12-.23.27-.13.75-.26,1.5-.41,2.25a.53.53,0,0,1-.2.31c-.35.25-.71.47-1.07.71a.4.4,0,0,1-.43.06c-.64-.24-1.28-.45-1.92-.7a.43.43,0,0,0-.56.12c-.35.38-.72.73-1.08,1.09l-.93.94c.47.72.94,1.42,1.39,2.12a.56.56,0,0,1,.08.35c-.12.58-.26,1.15-.41,1.72a.45.45,0,0,1-.19.24l-2,1a.21.21,0,0,0-.12.28c.09.41.15.82.22,1.22.14.77.29,1.55.43,2.33l.32,0,1.85.11a.32.32,0,0,1,.23.08c.41.62.8,1.24,1.19,1.86a.35.35,0,0,1,0,.26c-.28.76-.57,1.51-.85,2.27a.35.35,0,0,0,.05.3l2.45,2.28L23,54.36a.32.32,0,0,1,.41-.06c.44.23.89.41,1.32.64a.51.51,0,0,1,.26.28c.27.68.53,1.36.77,2.06.1.26.21.34.48.3q1.5-.22,3-.39c.17,0,.23-.08.25-.26.09-.74.18-1.48.29-2.21a.51.51,0,0,1,.2-.31,10.72,10.72,0,0,1,1-.61.62.62,0,0,1,.42-.06c.77.18,1.53.38,2.3.58a.26.26,0,0,0,.32-.11c.58-.74,1.16-1.48,1.75-2.21a.28.28,0,0,0,0-.4c-.4-.63-.8-1.26-1.19-1.9a.62.62,0,0,1-.08-.4q.07-.64.21-1.29A.53.53,0,0,1,35,47.7c.74-.43,1.5-.83,2.24-1.25a.29.29,0,0,0,.11-.24C37.23,45.09,37.07,44,37,42.86ZM26.54,52.64h-.35a6.7,6.7,0,1,1,6.71-7h0A6.71,6.71,0,0,1,26.54,52.64Z"/><path class="cls-1" d="M30.11,41.62a5.78,5.78,0,0,0-3.9-1.51H25.9A5.83,5.83,0,1,0,32,45.65,5.77,5.77,0,0,0,30.11,41.62ZM30,49.31A5.45,5.45,0,0,1,27.24,51a4.87,4.87,0,0,1-5-1.8,5.1,5.1,0,1,1,7.79.16Z"/><path class="cls-1" d="M41.81,22.72c-.62-.38-1.25-.73-1.87-1.11a.56.56,0,0,1-.26-.31,14.12,14.12,0,0,1-.17-1.44.74.74,0,0,1,.14-.46c.46-.57.94-1.11,1.42-1.67-.55-.89-1.09-1.76-1.64-2.62a.35.35,0,0,0-.3-.13c-.5.11-1,.24-1.5.38-.72.2-.72.21-1.19-.39-.15-.19-.31-.37-.44-.57a2,2,0,0,1-.24-.52c-.19-.7-.37-1.4-.54-2.11a.25.25,0,0,0-.28-.23c-.83,0-1.66-.13-2.49-.18a.49.49,0,0,0-.34.19,5.67,5.67,0,0,0-.59,1,1.39,1.39,0,0,1-1.53,1,.69.69,0,0,0-.28.05.58.58,0,0,1-.58-.16c-.55-.48-1.12-.94-1.68-1.41l-2.62,1.65a.39.39,0,0,0-.11.31c.14.61.32,1.22.46,1.83a.62.62,0,0,1-.07.42,12.47,12.47,0,0,1-.66,1.11.52.52,0,0,1-.32.18c-.72.05-1.43.07-2.15.11-.16,0-.29,0-.33.25-.16,1-.35,2-.54,3.06a.29.29,0,0,0,.16.37c.56.36,1.12.72,1.67,1.09a.55.55,0,0,1,.2.23c.11.33.19.67.31,1a.71.71,0,0,1-.19.87,5.93,5.93,0,0,0-.65.75l-.82,1c.61,1,1.19,1.88,1.78,2.79a.37.37,0,0,0,.3.14c.31-.05.61-.13.92-.19a4.47,4.47,0,0,1,1.58-.26c.38.06.71.52,1,.83a.67.67,0,0,1,.2.38c.1.65.19,1.3.25,2a.34.34,0,0,0,.33.37c.81.14,1.62.3,2.43.47a.29.29,0,0,0,.36-.14,11,11,0,0,0,.65-.92,2.11,2.11,0,0,1,2-1.27.71.71,0,0,1,.41.13c.5.43,1,.89,1.47,1.32a.36.36,0,0,0,.31.06c.89-.57,1.77-1.16,2.67-1.75-.11-.34-.22-.64-.32-.94a4.79,4.79,0,0,1-.43-1.4,4.4,4.4,0,0,1,.54-1.37v0c.06-.28.25-.33.49-.34.83,0,1.67,0,2.5-.08a.27.27,0,0,0,.21-.19c.15-1,.28-1.93.41-2.89A.34.34,0,0,0,41.81,22.72Zm-10.36,6A6.54,6.54,0,1,1,38,22.16,6.54,6.54,0,0,1,31.45,28.69Z"/><path class="cls-1" d="M31.45,16.5a5.66,5.66,0,1,0,5.66,5.66A5.66,5.66,0,0,0,31.45,16.5Zm1.93,9.92a4.67,4.67,0,0,1-5.8-1.5,4.83,4.83,0,0,1,.79-6.35,4.69,4.69,0,0,1,7,.67,4.41,4.41,0,0,1,.82,2A4.86,4.86,0,0,1,33.38,26.42Z"/></svg>