<svg width="19" height="19" viewBox="0 0 19 19" fill="none" xmlns="http://www.w3.org/2000/svg">
<path d="M1.5 16.825H2.6L13.675 5.75L12.575 4.65L1.5 15.725V16.825ZM16.85 4.675L13.65 1.475L14.7 0.425C14.9833 0.141667 15.3333 0 15.75 0C16.1667 0 16.5167 0.141667 16.8 0.425L17.9 1.525C18.1833 1.80833 18.325 2.15833 18.325 2.575C18.325 2.99167 18.1833 3.34167 17.9 3.625L16.85 4.675ZM15.8 5.725L3.2 18.325H0V15.125L12.6 2.525L15.8 5.725ZM13.125 5.2L12.575 4.65L13.675 5.75L13.125 5.2Z" fill="white"/>
</svg>
