<svg width="29" height="29" viewBox="0 0 29 29" fill="none" xmlns="http://www.w3.org/2000/svg">
<g clip-path="url(#clip0_2_9020)">
<path opacity="0.3" d="M10.8748 6.04167H6.0415V10.875H10.8748V6.04167Z" fill="#F0F0F5"/>
<path opacity="0.3" d="M10.8748 18.125H6.0415V22.9583H10.8748V18.125Z" fill="#F0F0F5"/>
<path opacity="0.3" d="M22.9583 18.125H18.125V22.9583H22.9583V18.125Z" fill="#F0F0F5"/>
<path opacity="0.3" d="M22.9583 6.04167H18.125V10.875H22.9583V6.04167Z" fill="#F0F0F5"/>
<path d="M3.625 25.375H13.2917V15.7083H3.625V25.375ZM6.04167 18.125H10.875V22.9583H6.04167V18.125Z" fill="#F0F0F5"/>
<path d="M3.625 13.2917H13.2917V3.625H3.625V13.2917ZM6.04167 6.04167H10.875V10.875H6.04167V6.04167Z" fill="#F0F0F5"/>
<path d="M15.7085 25.375H25.3752V15.7083H15.7085V25.375ZM18.1252 18.125H22.9585V22.9583H18.1252V18.125Z" fill="#F0F0F5"/>
<path d="M15.7085 3.625V13.2917H25.3752V3.625H15.7085ZM22.9585 10.875H18.1252V6.04167H22.9585V10.875Z" fill="#F0F0F5"/>
</g>
<defs>
<clipPath id="clip0_2_9020">
<rect width="29" height="29" fill="white"/>
</clipPath>
</defs>
</svg>
