<svg width="33" height="33" viewBox="0 0 33 33" fill="none" xmlns="http://www.w3.org/2000/svg">
<path d="M20.5304 2.87296H9.76537C8.35217 2.87469 7.20697 4.01989 7.20537 5.43309V17.5218C5.79844 17.6882 4.70297 18.8712 4.70297 20.3231V21.7679C4.70297 23.2198 5.79844 24.4028 7.20537 24.5692V27.7511C7.20711 29.1643 8.35231 30.3095 9.76537 30.3111H26.3271C27.7403 30.3094 28.8855 29.1642 28.8871 27.7511V10.5486L20.5304 2.87296ZM27.3502 27.7511C27.3502 28.3131 26.8946 28.7687 26.3326 28.7687C26.3319 28.7687 26.331 28.7687 26.3302 28.7687V28.7679H9.76844C9.20737 28.7671 8.75271 28.3122 8.75231 27.7511V24.6028H16.8656C18.4314 24.6028 19.7006 23.3336 19.7006 21.7679V20.3231C19.7006 18.7574 18.4314 17.4882 16.8656 17.4882H8.75231V5.43149C8.75311 4.87069 9.20764 4.41616 9.76844 4.41536H19.4858C19.4858 6.10402 19.4927 8.78415 19.5004 10.4008C19.5039 11.1556 20.1186 11.7648 20.8734 11.7614C20.8744 11.7614 20.8755 11.7612 20.8766 11.7612L27.3503 11.7219V27.7511H27.3502Z" fill="white"/>
<path d="M10.3988 22.517L9.68817 21.4955L8.99044 22.517H8.20804L9.29737 21.0203L8.26284 19.5739H9.03644L9.7135 20.528L10.3776 19.5739H11.1136L10.0874 20.995L11.1848 22.517H10.3988Z" fill="black"/>
<path d="M11.456 19.574H12.1366V21.9617H13.6127V22.5169H11.456V19.574Z" fill="black"/>
<path d="M13.7483 22.2267L13.9798 21.7139C14.2276 21.8947 14.5974 22.0205 14.9506 22.0205C15.3546 22.0205 15.5182 21.8864 15.5182 21.7056C15.5182 21.1544 13.8072 21.5331 13.8072 20.4404C13.8072 19.9396 14.2104 19.5233 15.0471 19.5233C15.4175 19.5233 15.7954 19.6116 16.0692 19.7841L15.8591 20.3011C15.5852 20.1456 15.3039 20.0696 15.043 20.0696C14.6398 20.0696 14.4843 20.2209 14.4843 20.4061C14.4843 20.9491 16.1952 20.5745 16.1952 21.6549C16.1952 22.1472 15.7872 22.5676 14.9464 22.5676C14.4795 22.5676 14.0091 22.4287 13.7483 22.2267Z" fill="black"/>
</svg>
